HIERARCHY
ROOT Hips
{
	OFFSET 0.000000 0.000000 0.000000 
	CHANNELS 6 Xposition Yposition Zposition Zrotation Xrotation Yrotation
	JOINT Chest
	{
		OFFSET 0.000000 20.000000 0.000000 
		CHANNELS 3 Zrotation Xrotation Yrotation
		JOINT LeftShoulder
		{
			OFFSET 20.000000 20.000000 0.000000 
			CHANNELS 3 Zrotation Xrotation Yrotation
			JOINT LeftElbow
			{
				OFFSET 0.000000 -25.000000 0.000000 
				CHANNELS 3 Zrotation Xrotation Yrotation
				JOINT LeftWrist
				{
					OFFSET 0.000000 -22.000000 0.000000 
					CHANNELS 3 Zrotation Xrotation Yrotation
					End Site
					{
						OFFSET 0.000000 -15.000000 0.000000 
					}
				}
			}
		}
		JOINT RightShoulder
		{
			OFFSET -20.000000 20.000000 0.000000 
			CHANNELS 3 Zrotation Xrotation Yrotation
			JOINT RightElbow
			{
				OFFSET 0.000000 -25.000000 0.000000 
				CHANNELS 3 Zrotation Xrotation Yrotation
				JOINT RightWrist
				{
					OFFSET 0.000000 -22.000000 0.000000 
					CHANNELS 3 Zrotation Xrotation Yrotation
					End Site
					{
						OFFSET 0.000000 -15.000000 0.000000 
					}
				}
			}
		}
		JOINT Neck
		{
			OFFSET 0.000000 20.099993 0.000000 
			CHANNELS 3 Zrotation Xrotation Yrotation
			End Site
			{
				OFFSET -0.200000 15.899995 10.500000 
			}
		}
	}
	JOINT LeftHip
	{
		OFFSET 10.000000 0.000000 0.000000 
		CHANNELS 3 Zrotation Xrotation Yrotation
		JOINT LeftKnee
		{
			OFFSET 0.000000 -50.000000 0.000000 
			CHANNELS 3 Zrotation Xrotation Yrotation
			JOINT LeftAnkle
			{
				OFFSET 0.000000 -40.000000 0.000000 
				CHANNELS 3 Zrotation Xrotation Yrotation
				End Site
				{
					OFFSET 0.000000 0.000000 20.000000 
				}
			}
		}
	}
	JOINT RightHip
	{
		OFFSET -10.000000 0.000000 0.000000 
		CHANNELS 3 Zrotation Xrotation Yrotation
		JOINT RightKnee
		{
			OFFSET 0.000000 -50.000000 0.000000 
			CHANNELS 3 Zrotation Xrotation Yrotation
			JOINT RightAnkle
			{
				OFFSET 0.000000 -40.000000 0.000000 
				CHANNELS 3 Zrotation Xrotation Yrotation
				End Site
				{
					OFFSET 0.000000 0.000000 20.000000 
				}
			}
		}
	}
}
MOTION
Frames: 14
Frame Time: 0.04170833333333333
0.000000 0.000000 0.000000 -6.04172763 19.10443501 -3.76382389  5.56707213 -0.21715957 -4.26774757   24.59060948  -33.909614   -142.21314387   60.19163228   47.13138831 -129.71317182 -0.73979242 25.09512046 90.55633086 -13.77155642 -38.41339109 142.89353987 -52.50724103  30.9278082  124.1283926  -20.34943871   8.94896085 107.05295272 0.4950503  0.07584196 1.27235112    7.74749113  -22.84988851 -104.09847193 -24.76973956  -9.82094757 116.77101329 -8.87867667 21.40843013  6.81415735  73.71216131 -83.5092696  170.21012392  100.36796719  -10.83011129 -134.07368255 -52.77149061 -18.98036192  46.75605067 
0.000000 0.000000 0.000000 -7.55425546 14.53954178 -7.54539282  7.338321   -0.17389111 -4.57079158   23.06013095  -23.74076637 -125.70781351   89.88161876   33.0702226  -139.99892396   7.56965143  20.23431195 -95.8707582  -18.41702054  -5.62370483 109.29892365 -46.7662567    5.8668297  124.38155178 -22.69188363  -8.17208189 114.19218922 -0.15497792  0.07736626  2.18591128    9.35882404  -16.46182501 -103.46063417 -18.57338503  -7.90136497 110.31887344 -25.81261245  12.75302515  20.34864507  151.58731638  -73.46476357 -112.87534775  101.52938447  -15.5390654  -133.93358081 -63.84080629 -23.19268572  50.28555422 
0.000000 0.000000 0.000000 -7.28730293 12.96319581 -7.89061873  7.87403933 -0.24050661 -7.44467308   22.39546582  -16.84153807 -118.93301873  118.57066893   29.67531672 -144.25683619  12.45390495  20.16390261 -99.59791223 -19.40390692  -1.98060031 108.96438601 -33.79842302   6.50479809 117.08608954 -19.87419828 -11.02742927 112.98038825 -1.55658078  0.03478064  6.63518094   7.96049988  -9.31466601 -99.5120541  -8.22327037 -3.10751466 98.60780604 -45.92349643   2.51118684  34.90786241  155.59445057  -61.29382658 -107.90302062   94.78095287  -14.70171684 -135.23404479 -72.85260218 -21.21737008  49.17580051 
0.000000 0.000000 0.000000 -8.72724013  3.57170681 -7.85804918  7.16558919  0.09006086 -2.92297655   23.87755021  -27.16962074 -130.60929582  109.06890696   45.48457857 -153.64984847   7.17196358  14.20571019 -95.87692043 -20.35598999   3.53617008 108.23340135 -25.97159378  -0.16056265 113.70307318 -14.8004932   -9.15053097 107.03902931  0.30919325 -0.21506117  8.39828751   8.13330901  -2.10013903 -98.35724662 -11.77053707  -4.67678409 102.54358464 -37.84787165   6.76405854  29.46452333  162.78717382  -58.778129   -102.49635956  113.38574294  -15.39715657 -130.63661498 -72.44874335 -21.18076824  49.18297393 
0.000000 0.000000 0.000000 -9.92987686 -0.90978162 -7.66407605  7.44478033 -0.03740343  0.78366563   25.68889312  -31.39457076 -138.45222488  109.3446665    53.17050875 -160.49085869   7.3566645   13.65332518 -96.06137278 -19.69113139   5.70832632 107.19730877 -31.56101877  -1.29876517 118.09570094 -18.1110023   -7.64559049 109.77438759  2.30565614 -0.02480827  3.32491043   8.34284197   1.50885904 -98.05161977 -15.3276723   -6.20692787 106.54433156 -33.9288145    8.25192846  26.72173398  156.94625513  -62.98577021 -107.08660887  120.11554762  -19.59773434 -127.91994788 -74.86527246 -21.76295654  49.24475629 
0.000000 0.000000 0.000000 -9.33938478  1.03318502 -7.92389516  7.0067948   0.02923006 -0.37744319   29.80150935  -29.15522641 -137.8060402   105.24158448   54.18479929 -158.91560522   4.16775207  21.63262068 -93.20658545 -18.93550653   3.64970934 107.04873693 -34.88401751  -1.92257839 120.47437046 -19.0586912   -9.64274884 111.5333399   2.07005515 -0.15541365  3.76832708   5.42702879  -2.88341182 -95.69339355 -17.11324882  -1.35482244 106.75970853 -34.13979901   9.68670545  26.5124914   135.54609377  -70.30446726 -124.76205835  105.19213233  -22.43861701 -133.29370463 -70.46740959 -20.81627996  49.11628173 
0.000000 0.000000 0.000000 -8.24990305  4.98894032 -9.16458324  4.87660987  0.40031008 -4.33313217   40.42600446  -29.52213764 -142.64097311   89.48103446   62.79574762 -155.05033153 -8.23022852 15.07948655 96.67579959 -20.61837127   9.47772735 107.15911413 -31.49862019  -6.58633411 120.25855117 -18.20816372  -6.16746677 109.30236834  3.84336493 -0.04166272  1.6569743    5.62633775  -8.2080863  -96.59739883 -1.94818989e+01 -1.05785669e-03  1.08444308e+02 -30.29159088  15.97212523  22.81580611   88.96633215  -72.69453295 -164.3424382    97.30121992  -28.91590245 -136.63679416 -74.60185396 -21.96904185  49.34130483 
0.000000 0.000000 0.000000  -7.48750699   7.2232495  -10.07585059  5.10983494  0.48477018 -7.58093292   42.87401193  -25.27116863 -139.00056085   76.06887172   54.57862131 -141.36500188   7.86588892  19.62876883 -96.1281634  -24.57654653   7.6952555  110.49375783 -41.49213512 -10.8113779  128.20538058 -15.00383151  -1.54523522 104.89073927 4.01299579 0.03487965 5.7998747    6.05015124 -11.12846023 -97.60633479 -23.38858266  -1.28934378 112.06965314 -13.03297072  20.41675929  10.0145805   46.54437348 -63.05494516 167.57064413   70.84802264  -35.26055949 -146.42046259 -77.00830331 -22.83108782  49.42513083 
0.000000 0.000000 0.000000  -6.06786339  12.83962922 -10.15760939  4.79625593  0.14135304 -3.44172949   38.95902332  -25.9595574  -138.37565732   70.57166376   44.66104136 -134.93849144   13.82677993   16.2001887  -100.98501341 -21.2857029   -6.15994751 112.09475967 -55.84914798 -11.10957064 133.46646485 -14.11580075   9.80477869 101.96792655 4.12901876 0.17693722 5.68835229   6.31338377 -13.86442418 -98.53554321 -21.92243872  -4.05657951 111.83340299 -11.32187529  19.07460388   8.81793334  22.68795482 -50.77751515 167.9387918    40.2094514   -42.98534102 -161.91388957 -46.42612677   4.63889121  34.54224371 
0.000000 0.000000 0.000000 -2.16560879 17.16369077 -8.04695279  0.2249415  -0.08616077  1.86686384   32.16604237  -26.19751967 -135.47763597   72.01496388   31.05150449 -133.11231966   14.12870504   10.07190037 -101.94165204 -16.03835884 -32.70033739 130.60457394 -64.55685753  12.9911263  130.13632522 -8.15025867 15.3996386  96.59101025  3.33211398e+00 -2.80588404e-03 -2.33262498e-01    4.31061176  -31.37956158 -102.66406581 -54.23967329 -17.22351133 136.05517993 -141.80184357   -3.32121281   30.64277989    8.40784567  -32.35976805 -114.8845936  -29.10799222 -23.69880585 130.75287716 -141.61534643  -14.5576041    28.05895217 
0.000000 0.000000 0.000000  4.66272366 14.64852188 -7.14954597 -3.90557426 -0.01186779 -1.10417948   20.37601374   -2.40836433 -109.94032623   74.37201164    6.9111062  -133.21043949   17.07134596   -2.03642397 -106.91366726 -10.06297085 -32.87343676 119.7724882  -79.14591369   7.36066728 134.0315522  -13.65507903  17.72422287 100.70866792  0.35202591 -0.01371497 -0.81177401  13.02041555 -80.96347122 105.6330684    98.6446045     6.67526777 -135.37597509 -50.7589209  -27.9739812   52.86750615  -2.76334437 -22.00241232  94.98284728   29.5314781     5.49887294 -114.556072   -34.20803454   8.5594656   26.82106816 
0.000000 0.000000 0.000000 10.28016917 12.17939898 -5.24258675 -7.845287    0.04194426  0.915546     13.43905922    8.53078899 -101.5900695   5.51188239e+01 -1.27640853e-01 -1.29399283e+02   12.37078781   -7.30293662 -103.86872367  -9.96158366 -36.0434739  127.06247452 -90.14645969  19.06049128 136.63966022 -13.31663413  19.21367384 100.32307646 -2.89371409  0.02708848 -5.71813551  167.02371606  -69.6096799  -100.09048201  116.63428206    9.90731172 -134.55260284 -59.59405504 -26.46210041  52.17079367  -9.68092664 -19.93348488 105.55750669   25.82273933    0.20152328 -113.47127267 -12.9634625   20.23673171   9.97603803 
0.000000 0.000000 0.000000 14.06246544  3.19529124 -3.63799698 -10.94812854   0.58813068  12.80301659   12.1305743     7.49239166 -100.63637786   45.97630204   -3.98747289 -127.1436655    19.1991823   -13.89000989 -113.84429858 -13.98106385 -30.21368402 122.73439651 -107.06960127   28.89293431  142.4935491  -14.57626508  16.49364539 101.53055545 -5.64501815  0.47242754 -8.96226218 168.08172871 -59.05229649 -98.67584942  126.4801982    10.72480595 -132.68236848 -68.99683648 -29.15389278  53.18759787 -14.92335102  -7.44554436 106.55473309   14.06762867    1.3902781  -103.36272999 -147.99989453  -18.93588468   23.45970811 
0.000000 0.000000 0.000000 15.41312071 -1.65064818 -3.00072849 -10.55700942   0.99863539  12.98961669  11.55954189  13.48767287 -99.47308712   37.92098356    0.29406528 -121.47096574   20.32135772  -17.67488905 -117.4667057  -14.01760046 -33.29094948 128.60692256 -104.46504089   35.47734341  145.34444691 -8.66072232 18.45704115 96.80685285  -8.2111779    0.68080506 -10.20373927 169.14529928 -64.06568871 -98.11605212  120.47124938   10.30062394 -133.9775777  -73.54859154 -31.42342471  53.65392534 -17.22506374  -1.75790008 106.97283967   8.72980398   1.31276368 -98.44402109 -130.03310826   -9.63755639   34.99806267 
